<svg width="209.00000000000003" height="209.00000000000003" xmlns="http://www.w3.org/2000/svg" xmlns:svg="http://www.w3.org/2000/svg" preserveAspectRatio="xMidYMid meet">
 <g class="layer">
  <title>Layer 1</title>
  <g fill="#000000" id="svg_1" style="--darkreader-inline-fill:#000000;" transform="translate(0 209) scale(0.1 -0.1)">
   <path d="m630,1963c-40,-15 -40,-14 -40,-660c0,-610 0,-623 20,-643c19,-19 33,-20 465,-20c432,0 446,1 465,20c19,19 20,33 20,487l0,467l-175,175l-175,176l-282,2c-156,1 -290,-1 -298,-4zm103,-100c-10,-48 -7,-97 8,-150c14,-53 5,-91 -26,-105c-26,-12 -41,-41 -30,-58c14,-23 58,-9 97,30l39,39l44,-21c49,-24 75,-19 75,14c-1,17 -14,31 -52,53c-71,42 -93,74 -92,138c0,29 6,62 13,75c12,22 14,22 179,20l167,-3l3,-51l3,-51l-73,-5c-40,-3 -81,-9 -91,-13c-13,-5 -27,3 -52,30c-40,42 -68,43 -73,3c-5,-38 44,-89 92,-97c36,-6 39,-8 42,-45c6,-68 45,-106 74,-71c9,11 9,22 1,48c-14,43 -6,65 27,74c37,9 52,-18 52,-94l0,-63l165,0l165,0l0,-338l0,-339l-30,5c-78,11 -174,-44 -168,-97c4,-38 34,-38 73,-1c28,27 38,31 76,28l44,-3l3,-52l3,-53l-197,0l-196,0l31,35c66,76 87,164 56,245c-26,69 -25,101 6,118c71,41 193,-49 134,-98c-20,-16 -19,-56 1,-64c50,-19 108,91 75,143c-7,10 -2,20 16,34c31,25 44,57 31,80c-13,25 -39,21 -64,-10l-21,-27l-70,13c-79,14 -114,8 -159,-24l-30,-23l-21,32c-35,53 -43,73 -43,114c0,46 26,75 85,95c48,17 64,39 46,61c-19,22 -39,20 -99,-10c-133,-66 -135,-181 -8,-353c25,-35 46,-67 46,-72c0,-5 -12,-4 -26,1c-61,23 -130,3 -122,-36c2,-15 14,-20 53,-24c60,-6 71,-12 90,-51c14,-26 14,-32 1,-58c-23,-44 -92,-98 -141,-110c-24,-6 -103,-11 -174,-11l-131,0l0,161l0,162l45,-6c26,-2 48,-7 51,-10c3,-2 -5,-23 -17,-46c-37,-72 -9,-177 45,-169c22,3 23,14 11,88c-4,23 -1,42 8,55c14,19 16,18 22,-20c16,-84 73,-160 116,-153c36,5 34,35 -4,77c-21,24 -37,54 -41,78c-17,95 -105,173 -197,173l-39,0l0,110l0,109l30,16c36,19 70,19 95,1c14,-10 17,-21 12,-48c-6,-38 6,-58 35,-58c21,0 38,29 38,64c0,20 8,29 35,40c71,30 110,97 65,111c-15,5 -31,-2 -56,-24c-40,-36 -48,-37 -100,-15c-37,16 -101,15 -136,0c-17,-8 -18,8 -18,243l0,251l40,0l41,0l-8,-37zm602,-133l100,-100l-103,0l-102,0l0,100c0,55 1,100 3,100c1,0 47,-45 102,-100z" fill="#ffffff" id="svg_2" style="--darkreader-inline-fill:#181a1b;"/>
   <path d="m1232,1508c-18,-18 -16,-22 28,-73c43,-50 51,-87 25,-121c-20,-27 -18,-51 5,-64c37,-20 80,53 80,138c0,26 6,36 30,50c19,11 30,25 30,40c0,33 -28,39 -71,15l-38,-21l-22,24c-25,26 -48,31 -67,12z" fill="#ffffff" id="svg_3" style="--darkreader-inline-fill:#181a1b;"/>
   <path d="m326,459c-25,-20 -26,-23 -26,-133c0,-105 2,-114 23,-134c15,-14 36,-22 59,-22c51,0 78,36 78,102l0,49l-40,-3c-45,-3 -54,-18 -21,-33c42,-20 17,-80 -31,-73c-22,3 -23,7 -26,110c-3,107 -3,107 22,114c31,7 44,-1 57,-33c11,-29 33,-26 37,5c5,30 -40,72 -76,72c-16,0 -41,-9 -56,-21z" fill="#ffffff" id="svg_4" style="--darkreader-inline-fill:#181a1b;"/>
   <path d="m510,347c0,-127 1,-135 23,-155c34,-32 89,-30 116,4c19,24 21,40 21,156c0,118 -2,129 -17,126c-16,-3 -18,-18 -21,-122c-1,-70 -7,-125 -14,-133c-6,-8 -23,-13 -37,-11l-26,3l-5,130c-4,113 -7,130 -22,133c-16,3 -18,-8 -18,-131z" fill="#ffffff" id="svg_5" style="--darkreader-inline-fill:#181a1b;"/>
   <path d="m746,459c-26,-20 -26,-22 -26,-155c0,-124 2,-135 18,-132c13,2 18,15 20,56l3,52l40,0l39,0l0,-55c0,-48 2,-55 20,-55c19,0 20,7 20,130c0,126 -1,132 -25,155c-30,31 -73,32 -109,4zm82,-31c7,-7 12,-34 12,-60l0,-48l-40,0l-40,0l0,48c0,50 12,72 40,72c9,0 21,-5 28,-12z" fill="#ffffff" id="svg_6" style="--darkreader-inline-fill:#181a1b;"/>
   <path d="m930,325c0,-148 1,-155 20,-155c18,0 20,7 20,65l0,65l30,0c34,0 38,-7 48,-76c5,-35 12,-50 25,-52c20,-4 23,36 7,106c-8,34 -7,49 6,73c35,69 -12,129 -102,129l-54,0l0,-155zm115,95c15,-17 16,-24 7,-45c-11,-25 -52,-42 -71,-30c-6,3 -11,26 -11,51c0,42 1,44 28,44c16,0 37,-9 47,-20z" fill="#ffffff" id="svg_7" style="--darkreader-inline-fill:#181a1b;"/>
   <path d="m1140,325l0,-155l55,0c46,0 60,4 80,25c23,22 25,31 25,120c0,136 -19,164 -107,165l-53,0l0,-155zm110,96c14,-28 13,-184 -2,-199c-7,-7 -25,-12 -40,-12l-28,0l0,115l0,115l30,0c19,0 33,-7 40,-19z" fill="#ffffff" id="svg_8" style="--darkreader-inline-fill:#181a1b;"/>
   <path d="m1373,465c-26,-19 -37,-59 -22,-88c6,-12 31,-43 56,-68c32,-34 44,-53 41,-70c-5,-35 -44,-38 -60,-5c-15,35 -38,33 -38,-2c0,-55 68,-81 118,-46c16,11 22,25 22,55c0,34 -8,48 -55,99c-47,52 -54,63 -45,80c15,28 48,25 60,-5c5,-14 16,-25 25,-25c22,0 19,46 -5,70c-24,24 -67,26 -97,5z" fill="#ffffff" id="svg_9" style="--darkreader-inline-fill:#181a1b;"/>
   <path d="m1540,325l0,-155l68,0c38,0 72,3 75,7c15,14 -18,33 -59,33l-44,0l0,44c0,44 0,45 37,48c26,2 39,8 41,20c2,13 -5,17 -35,20c-38,3 -38,3 -41,51l-3,47l49,0c34,0 52,5 55,14c9,22 -2,26 -75,26l-68,0l0,-155z" fill="#ffffff" id="svg_10" style="--darkreader-inline-fill:#181a1b;"/>
   <path d="m1740,460c-18,-18 -20,-33 -20,-133c0,-135 10,-157 69,-157c42,0 69,22 73,60c4,32 -24,38 -37,8c-7,-15 -19,-23 -35,-23l-25,0l0,110l0,110l25,0c16,0 28,-8 35,-23c13,-30 41,-24 37,8c-5,54 -83,79 -122,40z" fill="#ffffff" id="svg_11" style="--darkreader-inline-fill:#181a1b;"/>
  </g>
 </g>

</svg>